<svg width="37" height="37" viewBox="0 0 37 37" fill="none" xmlns="http://www.w3.org/2000/svg">
<g clip-path="url(#clip0)">
<path d="M30.0625 17.3438C30.0625 17.9825 30.58 18.5 31.2188 18.5C31.8575 18.5 32.375 17.9825 32.375 17.3438C32.375 10.3304 26.6691 4.625 19.6562 4.625C19.0175 4.625 18.5 5.14254 18.5 5.78125C18.5 6.41996 19.0175 6.9375 19.6562 6.9375C25.394 6.9375 30.0625 11.6055 30.0625 17.3438Z" fill="white" stroke="#20A4C1" stroke-width="0.5"/>
<path fill-rule="evenodd" clip-rule="evenodd" d="M26.9998 20.886L36.2498 24.3548C36.7012 24.5241 37 24.9556 37 25.4375V26.0841C37 28.959 35.8808 31.6609 33.8485 33.6931C31.7159 35.8253 28.8808 37 25.8648 37C23.8682 37 21.9012 36.4681 20.1756 35.4617C12.475 30.9695 6.03054 24.5245 1.53828 16.8239C0.531875 15.0992 0 13.1318 0 11.1351C0 8.11965 1.17429 5.28406 3.30734 3.15147C5.33956 1.11925 8.04195 0 10.9159 0H11.5625C12.0444 0 12.4759 0.298775 12.6447 0.750175L16.1135 10.0002C16.2726 10.4248 16.169 10.9034 15.8485 11.224L13.0582 14.0147C15.774 17.8927 19.1077 21.2264 22.9853 23.9418L25.7761 21.1511C26.0975 20.8305 26.5757 20.7279 26.9998 20.886ZM25.8648 34.6875C28.2629 34.6875 30.5171 33.7537 32.2131 32.0577C33.7722 30.4986 34.6473 28.4373 34.6856 26.2376L26.8847 23.3123L23.9422 26.2543C23.5528 26.6442 22.9423 26.7052 22.4835 26.399C17.7531 23.2457 13.7548 19.2474 10.6005 14.516C10.2948 14.0577 10.3554 13.4467 10.7453 13.0573L13.6872 10.1149L10.7619 2.31343C8.56319 2.35228 6.50183 3.22686 4.94228 4.78641C3.24675 6.4824 2.3125 8.73709 2.3125 11.1351C2.3125 12.7229 2.73522 14.2871 3.53535 15.6589C7.82735 23.0159 13.9846 29.1731 21.3411 33.4642C22.7129 34.2643 24.2771 34.6875 25.8648 34.6875Z" fill="white"/>
<path d="M26.9998 20.886L27.0876 20.652L27.0872 20.6518L26.9998 20.886ZM33.8485 33.6931L34.0253 33.8699L34.0253 33.8699L33.8485 33.6931ZM20.1756 35.4617L20.0497 35.6777L20.0497 35.6777L20.1756 35.4617ZM1.53828 16.8239L1.75422 16.6979L1.7542 16.6979L1.53828 16.8239ZM3.30734 3.15147L3.4841 3.32827L3.48411 3.32825L3.30734 3.15147ZM12.6447 0.750175L12.4106 0.837746L12.4107 0.837956L12.6447 0.750175ZM16.1135 10.0002L16.3476 9.91245L16.3476 9.91239L16.1135 10.0002ZM15.8485 11.224L15.6717 11.0472L15.6717 11.0472L15.8485 11.224ZM13.0582 14.0147L12.8814 13.8379L12.7331 13.9863L12.8534 14.1581L13.0582 14.0147ZM22.9853 23.9418L22.8419 24.1466L23.0138 24.2669L23.1621 24.1186L22.9853 23.9418ZM25.7761 21.1511L25.5995 20.974L25.5993 20.9743L25.7761 21.1511ZM32.2131 32.0577L32.3899 32.2345L32.2131 32.0577ZM34.6856 26.2376L34.9356 26.242L34.9387 26.0655L34.7734 26.0035L34.6856 26.2376ZM26.8847 23.3123L26.9724 23.0782L26.8217 23.0217L26.7079 23.1355L26.8847 23.3123ZM23.9422 26.2543L23.7655 26.0775L23.7654 26.0776L23.9422 26.2543ZM22.4835 26.399L22.6223 26.1911L22.6222 26.191L22.4835 26.399ZM10.6005 14.516L10.8085 14.3773L10.8085 14.3773L10.6005 14.516ZM10.7453 13.0573L10.9219 13.2342L10.9221 13.2341L10.7453 13.0573ZM13.6872 10.1149L13.864 10.2916L13.9778 10.1778L13.9213 10.0271L13.6872 10.1149ZM10.7619 2.31343L10.996 2.22565L10.934 2.06035L10.7575 2.06346L10.7619 2.31343ZM4.94228 4.78641L4.7655 4.60964L4.76547 4.60966L4.94228 4.78641ZM3.53535 15.6589L3.3194 15.7848L3.31941 15.7848L3.53535 15.6589ZM21.3411 33.4642L21.2152 33.6801L21.2152 33.6801L21.3411 33.4642ZM36.3376 24.1207L27.0876 20.652L26.912 21.1201L36.162 24.5889L36.3376 24.1207ZM37.25 25.4375C37.25 24.8514 36.8867 24.3266 36.3376 24.1207L36.162 24.5889C36.5158 24.7215 36.75 25.0597 36.75 25.4375H37.25ZM37.25 26.0841V25.4375H36.75V26.0841H37.25ZM34.0253 33.8699C36.1044 31.7908 37.25 29.0253 37.25 26.0841H36.75C36.75 28.8927 35.6571 31.531 33.6717 33.5163L34.0253 33.8699ZM25.8648 37.25C28.9471 37.25 31.8458 36.0489 34.0253 33.8699L33.6718 33.5163C31.586 35.6016 28.8145 36.75 25.8648 36.75V37.25ZM20.0497 35.6777C21.8135 36.7064 23.824 37.25 25.8648 37.25V36.75C23.9125 36.75 21.989 36.2299 20.3016 35.2458L20.0497 35.6777ZM1.32233 16.9499C5.83632 24.6877 12.3118 31.1637 20.0497 35.6777L20.3016 35.2458C12.6382 30.7753 6.22475 24.3613 1.75422 16.6979L1.32233 16.9499ZM-0.25 11.1351C-0.25 13.176 0.293627 15.187 1.32235 16.9499L1.7542 16.6979C0.770123 15.0115 0.25 13.0875 0.25 11.1351H-0.25ZM3.13058 2.97468C0.950623 5.15416 -0.25 8.05335 -0.25 11.1351H0.25C0.25 8.18595 1.39795 5.41396 3.4841 3.32827L3.13058 2.97468ZM10.9159 -0.25C7.97565 -0.25 5.20967 0.895585 3.13056 2.9747L3.48411 3.32825C5.46945 1.34292 8.10825 0.25 10.9159 0.25V-0.25ZM11.5625 -0.25H10.9159V0.25H11.5625V-0.25ZM12.8789 0.662604C12.6735 0.113333 12.1485 -0.25 11.5625 -0.25V0.25C11.9403 0.25 12.2784 0.484217 12.4106 0.837746L12.8789 0.662604ZM16.3476 9.91239L12.8788 0.662394L12.4107 0.837956L15.8794 10.088L16.3476 9.91239ZM16.0253 11.4007C16.4151 11.0108 16.5411 10.4287 16.3476 9.91245L15.8794 10.0879C16.0041 10.4208 15.9229 10.796 15.6717 11.0472L16.0253 11.4007ZM13.235 14.1914L16.0253 11.4007L15.6717 11.0472L12.8814 13.8379L13.235 14.1914ZM23.1287 23.737C19.275 21.0384 15.9621 17.7255 13.263 13.8713L12.8534 14.1581C15.586 18.06 18.9404 21.4145 22.8419 24.1466L23.1287 23.737ZM25.5993 20.9743L22.8085 23.765L23.1621 24.1186L25.9528 21.3278L25.5993 20.9743ZM27.0872 20.6518C26.5718 20.4596 25.9904 20.5843 25.5995 20.974L25.9526 21.3281C26.2046 21.0768 26.5797 20.9962 26.9125 21.1203L27.0872 20.6518ZM32.0364 31.8809C30.3872 33.5301 28.1966 34.4375 25.8648 34.4375V34.9375C28.3292 34.9375 30.647 33.9774 32.3899 32.2345L32.0364 31.8809ZM34.4357 26.2333C34.3984 28.368 33.5497 30.3676 32.0364 31.8809L32.3899 32.2345C33.9947 30.6297 34.8961 28.5065 34.9356 26.242L34.4357 26.2333ZM26.7969 23.5464L34.5979 26.4717L34.7734 26.0035L26.9724 23.0782L26.7969 23.5464ZM24.119 26.4311L27.0614 23.4891L26.7079 23.1355L23.7655 26.0775L24.119 26.4311ZM22.3447 26.607C22.9029 26.9795 23.6455 26.9051 24.1191 26.4309L23.7654 26.0776C23.4601 26.3832 22.9817 26.431 22.6223 26.1911L22.3447 26.607ZM10.3925 14.6547C13.565 19.4135 17.5869 23.4354 22.3448 26.6071L22.6222 26.191C17.9192 23.056 13.9445 19.0813 10.8085 14.3773L10.3925 14.6547ZM10.5686 12.8804C10.0943 13.3541 10.0206 14.0972 10.3925 14.6547L10.8085 14.3773C10.5689 14.0182 10.6164 13.5393 10.9219 13.2342L10.5686 12.8804ZM13.5104 9.93811L10.5685 12.8805L10.9221 13.2341L13.864 10.2916L13.5104 9.93811ZM10.5278 2.4012L13.4531 10.2027L13.9213 10.0271L10.996 2.22565L10.5278 2.4012ZM5.11905 4.96319C6.63283 3.44941 8.63242 2.60109 10.7663 2.56339L10.7575 2.06346C8.49396 2.10346 6.37082 3.00432 4.7655 4.60964L5.11905 4.96319ZM2.5625 11.1351C2.5625 8.80342 3.47039 6.6123 5.11908 4.96316L4.76547 4.60966C3.02311 6.3525 2.0625 8.67076 2.0625 11.1351H2.5625ZM3.7513 15.5329C2.97348 14.1994 2.5625 12.6787 2.5625 11.1351H2.0625C2.0625 12.7672 2.49697 14.3748 3.3194 15.7848L3.7513 15.5329ZM21.4671 33.2482C14.1478 28.9789 8.02156 22.8526 3.75129 15.5329L3.31941 15.7848C7.63314 23.1791 13.8214 29.3673 21.2152 33.6801L21.4671 33.2482ZM25.8648 34.4375C24.3214 34.4375 22.8007 34.0261 21.4671 33.2482L21.2152 33.6801C22.6251 34.5025 24.2328 34.9375 25.8648 34.9375V34.4375Z" fill="#20A4C1"/>
<path d="M19.6562 0C19.0175 0 18.5 0.517537 18.5 1.15625C18.5 1.79496 19.0175 2.3125 19.6562 2.3125C27.9447 2.3125 34.6875 9.05575 34.6875 17.3438C34.6875 17.9825 35.205 18.5 35.8438 18.5C36.4825 18.5 37 17.9825 37 17.3438C37 7.78018 29.2198 0 19.6562 0Z" fill="white" stroke="#20A4C1" stroke-width="0.5"/>
</g>
<defs>
<clipPath id="clip0">
<rect width="37" height="37" fill="white"/>
</clipPath>
</defs>
</svg>
