<svg width="39" height="39" viewBox="0 0 39 39" fill="none" xmlns="http://www.w3.org/2000/svg">
<path fill-rule="evenodd" clip-rule="evenodd" d="M0.205261 19.5C0.205261 8.92895 8.87763 0.205261 19.5 0.205261C30.1737 0.205261 38.7947 8.82631 38.7947 19.5C38.7947 30.1224 30.0711 38.6921 19.5 38.6921C8.87763 38.6921 0.205261 30.0711 0.205261 19.5ZM31.0461 6.5171C27.9671 3.79737 23.9132 2.10395 19.5 2.10395C15.0868 2.10395 11.0329 3.74605 7.90263 6.5171L14.0092 12.675C15.4974 11.4434 17.3961 10.725 19.5 10.725C21.5526 10.725 23.4 11.3921 24.8882 12.5724L31.0461 6.5171ZM26.3763 19.3974C26.3763 23.1947 23.3487 26.2224 19.5513 26.2224C15.7539 26.2224 12.7263 23.1947 12.7263 19.3974C12.7263 15.6 15.7026 12.5211 19.5 12.5211C23.246 12.5211 26.3763 15.6 26.3763 19.3974ZM6.61973 7.90263C3.84868 10.9816 2.15526 15.0355 2.15526 19.5C2.15526 23.9132 3.79737 27.9158 6.5171 31.0461L12.675 24.9395C11.4947 23.4513 10.7763 21.5526 10.7763 19.5C10.7763 17.3961 11.4947 15.4974 12.7263 14.0605L6.61973 7.90263ZM19.5 36.8447C14.9842 36.8447 10.9303 35.1513 7.85131 32.3289L14.0092 26.2224C15.4974 27.5053 17.4474 28.2237 19.5 28.2237C21.5526 28.2237 23.4513 27.5053 24.9395 26.2737L31.0461 32.4829C28.0184 35.2026 23.9645 36.8447 19.5 36.8447ZM26.325 24.8882L32.4316 31.0974C35.2026 28.0184 36.8961 23.9645 36.9474 19.4487C36.9474 14.9842 35.2539 10.9303 32.4829 7.85131L26.325 13.9066C27.5566 15.3947 28.275 17.3447 28.275 19.4487C28.275 21.5013 27.5566 23.4 26.325 24.8882Z" fill="white"/>
</svg>
