<svg width="39" height="40" viewBox="0 0 39 40" fill="none" xmlns="http://www.w3.org/2000/svg">
<path fill-rule="evenodd" clip-rule="evenodd" d="M19.6926 0.0974121C29.6593 0.0974121 38.1815 7.89277 38.9518 18.2703C39.6259 28.112 32.7407 37.0279 23.1111 38.7332C21.9555 38.9281 20.8 39.0255 19.6926 39.0255C17.2852 39.0255 14.9741 38.587 12.8074 37.8075C10.4963 39.2204 7.17407 39.8537 4.67036 39.8537H4.38147C3.51481 39.8537 3.08147 38.7332 3.75555 38.1485C5.24814 36.7843 5.97036 35.8099 6.93333 34.1534C3.27407 30.8891 0.818512 26.2119 0.481475 20.8526C-0.1926 10.9622 6.78888 2.04625 16.4185 0.389738C17.5259 0.194854 18.6333 0.0974121 19.6926 0.0974121ZM22.7259 36.833C26.9148 36.1022 30.6704 33.7636 33.3185 30.3532C35.9667 26.894 37.2667 22.6552 36.9778 18.4165C36.3518 9.20824 28.7444 2.04625 19.6926 2.04625C18.7296 2.04625 17.7185 2.14369 16.8037 2.33858C8.18518 3.80021 1.87777 11.9366 2.45555 20.7551C2.74444 25.3836 4.81481 29.6223 8.23333 32.6918C8.9074 33.3251 9.09999 34.3483 8.61851 35.1278C7.99259 36.151 7.46296 36.9792 6.83703 37.71C8.52222 37.5151 10.4 36.9792 11.7963 36.1022C12.0852 35.9073 12.4704 35.8099 12.8074 35.8099C13.0481 35.8099 13.2407 35.8586 13.4815 35.9561C15.4555 36.7356 17.5259 37.1254 19.6444 37.1254C20.6555 37.1254 21.7148 37.0279 22.7259 36.833Z" fill="white"/>
<path d="M19.7407 22.4117C21.0703 22.4117 22.1481 21.321 22.1481 19.9756C22.1481 18.6302 21.0703 17.5396 19.7407 17.5396C18.4111 17.5396 17.3333 18.6302 17.3333 19.9756C17.3333 21.321 18.4111 22.4117 19.7407 22.4117Z" fill="white"/>
<path d="M10.1111 22.4117C11.4407 22.4117 12.5185 21.321 12.5185 19.9756C12.5185 18.6302 11.4407 17.5396 10.1111 17.5396C8.78151 17.5396 7.70367 18.6302 7.70367 19.9756C7.70367 21.321 8.78151 22.4117 10.1111 22.4117Z" fill="white"/>
<path d="M29.3704 22.4117C30.6999 22.4117 31.7778 21.321 31.7778 19.9756C31.7778 18.6302 30.6999 17.5396 29.3704 17.5396C28.0408 17.5396 26.963 18.6302 26.963 19.9756C26.963 21.321 28.0408 22.4117 29.3704 22.4117Z" fill="white"/>
</svg>
